<svg xmlns="http://www.w3.org/2000/svg" viewBox="0 0 11.916 11.386">
  <defs>
    <style>
      .cls-1 {
        opacity: 0.302;
      }
    </style>
  </defs>
  <g id="linkedin-logo" class="cls-1" transform="translate(0 -9.558)">
    <path id="LinkedIn" d="M11.916,16.539v4.405H9.362v-4.11c0-1.033-.369-1.737-1.294-1.737a1.4,1.4,0,0,0-1.31.934,1.748,1.748,0,0,0-.085.623v4.29H4.118s.034-6.961,0-7.683H6.673V14.35l-.017.025h.017V14.35a2.536,2.536,0,0,1,2.3-1.269C10.656,13.081,11.916,14.179,11.916,16.539ZM1.446,9.558a1.331,1.331,0,1,0-.034,2.655h.017a1.332,1.332,0,1,0,.017-2.655ZM.152,20.944H2.706V13.261H.152Z" transform="translate(0 0)"/>
  </g>
</svg>
