<svg id="linkedin-logo" xmlns="http://www.w3.org/2000/svg" viewBox="0 0 39.94 38.165">
  <defs>
    <style>
      .cls-1 {
        fill: #fff;
      }
    </style>
  </defs>
  <path id="LinkedIn" class="cls-1" d="M39.94,32.957V47.723H31.38V33.946c0-3.461-1.238-5.823-4.337-5.823a4.684,4.684,0,0,0-4.392,3.132,5.858,5.858,0,0,0-.284,2.087V47.723H13.8s.115-23.334,0-25.752h8.563v3.65c-.017.027-.04.057-.056.083h.056v-.083a8.5,8.5,0,0,1,7.717-4.255C35.717,21.366,39.94,25.047,39.94,32.957ZM4.846,9.558C1.916,9.558,0,11.48,0,14.006a4.435,4.435,0,0,0,4.732,4.452h.057c2.986,0,4.843-1.979,4.843-4.452A4.448,4.448,0,0,0,4.846,9.558ZM.509,47.723h8.56V21.972H.509Z" transform="translate(0 -9.558)"/>
</svg>
