<svg id="sharethis-logo" xmlns="http://www.w3.org/2000/svg" viewBox="0 0 46.743 46.743">
  <defs>
    <style>
      .cls-1 {
        fill: #fff;
      }
    </style>
  </defs>
  <path id="ShareThis" class="cls-1" d="M16.5,23.372c0,.16-.037.31-.046.47L33.2,32.213a8.164,8.164,0,0,1,5.3-1.972,8.251,8.251,0,1,1-8.248,8.249c0-.164.037-.311.046-.47L13.545,29.648a8.251,8.251,0,1,1,0-12.558L30.293,8.719c-.009-.16-.046-.311-.046-.475A8.248,8.248,0,1,1,38.5,16.5a8.157,8.157,0,0,1-5.3-1.977L16.452,22.9C16.461,23.057,16.5,23.208,16.5,23.372Z" transform="translate(-0.001 0)"/>
</svg>
