<svg xmlns="http://www.w3.org/2000/svg" viewBox="0 0 13.945 13.945">
  <defs>
    <style>
      .cls-1 {
        opacity: 0.3;
      }
    </style>
  </defs>
  <g id="sharethis-logo" class="cls-1" transform="translate(-0.001)">
    <path id="ShareThis" d="M4.923,6.973c0,.048-.011.093-.014.14l5,2.5a2.436,2.436,0,0,1,1.58-.588,2.462,2.462,0,1,1-2.461,2.461c0-.049.011-.093.014-.14l-5-2.5a2.462,2.462,0,1,1,0-3.746l5-2.5c0-.048-.014-.093-.014-.142a2.461,2.461,0,1,1,2.461,2.462,2.434,2.434,0,0,1-1.58-.59l-5,2.5C4.912,6.879,4.923,6.924,4.923,6.973Z"/>
  </g>
</svg>
