<svg id="twitter-logo-silhouette" xmlns="http://www.w3.org/2000/svg" viewBox="0 0 42.965 34.9">
  <defs>
    <style>
      .cls-1 {
        fill: #fff;
      }
    </style>
  </defs>
  <g id="Group_3" data-name="Group 3" transform="translate(0 0)">
    <path id="Path_4" data-name="Path 4" class="cls-1" d="M42.966,61.57A17.6,17.6,0,0,1,37.9,62.958a8.85,8.85,0,0,0,3.874-4.873,17.769,17.769,0,0,1-5.6,2.14A8.821,8.821,0,0,0,21.16,68.261,25.023,25.023,0,0,1,2.994,59.052,8.824,8.824,0,0,0,5.722,70.817,8.814,8.814,0,0,1,1.73,69.71v.11A8.823,8.823,0,0,0,8.8,78.463a8.927,8.927,0,0,1-2.322.309,8.46,8.46,0,0,1-1.659-.164,8.818,8.818,0,0,0,8.232,6.121A17.684,17.684,0,0,1,2.1,88.5,18.729,18.729,0,0,1,0,88.375a24.913,24.913,0,0,0,13.51,3.965c16.213,0,25.076-13.429,25.076-25.076l-.03-1.141A17.6,17.6,0,0,0,42.966,61.57Z" transform="translate(-0.001 -57.441)"/>
  </g>
</svg>
