<svg xmlns="http://www.w3.org/2000/svg" viewBox="0 0 12.818 10.412">
  <defs>
    <style>
      .cls-1 {
        opacity: 0.301;
      }

      .cls-2 {
        fill: #010002;
      }
    </style>
  </defs>
  <g id="twitter-logo-silhouette" class="cls-1" transform="translate(-0.001 -57.441)">
    <g id="Group_3" data-name="Group 3" transform="translate(0.001 57.441)">
      <path id="Path_4" data-name="Path 4" class="cls-2" d="M12.819,58.673a5.252,5.252,0,0,1-1.51.414,2.64,2.64,0,0,0,1.156-1.454,5.3,5.3,0,0,1-1.671.638,2.632,2.632,0,0,0-4.481,2.4A7.465,7.465,0,0,1,.894,57.922a2.633,2.633,0,0,0,.814,3.51A2.63,2.63,0,0,1,.517,61.1v.033a2.632,2.632,0,0,0,2.109,2.578,2.663,2.663,0,0,1-.693.092,2.524,2.524,0,0,1-.5-.049,2.631,2.631,0,0,0,2.456,1.826A5.276,5.276,0,0,1,.628,66.706,5.587,5.587,0,0,1,0,66.67a7.433,7.433,0,0,0,4.03,1.183,7.43,7.43,0,0,0,7.481-7.481l-.009-.34A5.251,5.251,0,0,0,12.819,58.673Z" transform="translate(-0.001 -57.441)"/>
    </g>
  </g>
</svg>
