<?xml version="1.0" encoding="utf-8"?>
<!-- Generator: Adobe Illustrator 19.2.0, SVG Export Plug-In . SVG Version: 6.00 Build 0)  -->
<svg version="1.1" id="Capa_1" xmlns="http://www.w3.org/2000/svg" xmlns:xlink="http://www.w3.org/1999/xlink" x="0px" y="0px"
	 viewBox="0 0 455 455" style="enable-background:new 0 0 455 455;" xml:space="preserve">
<style type="text/css">
	.st0{fill:url(#SVGID_1_);}
</style>
<linearGradient id="SVGID_1_" gradientUnits="userSpaceOnUse" x1="355.5899" y1="406.5291" x2="31.8642" y2="82.8036" gradientTransform="matrix(1 0 0 -1 0 456)">
	<stop  offset="0" style="stop-color:#000000"/>
	<stop  offset="1" style="stop-color:#000000;stop-opacity:0.1"/>
</linearGradient>
<path class="st0" d="M250.7,441.8l-65.2-56l0,0l-45.8-39.3v-63.3c0-4.1-3.4-7.5-7.5-7.5s-7.5,3.4-7.5,7.5v63.3L13.5,441.8
	c-3.1,2.7-3.5,7.4-0.8,10.6c2.7,3.1,7.4,3.5,10.6,0.8l61.2-52.5l40.1,21.3v25.5c0,4.1,3.4,7.5,7.5,7.5s7.5-3.4,7.5-7.5V422
	l40.1-21.3l61.2,52.5c1.4,1.2,3.2,1.8,4.9,1.8c2.1,0,4.2-0.9,5.7-2.6C254.2,449.3,253.8,444.5,250.7,441.8z M96.7,390.2l27.9-23.9
	v38.8L96.7,390.2z M139.6,405.1v-38.8l27.9,23.9L139.6,405.1z M377.8,240.5L377.8,240.5c-4.1,0-7.5,3.4-7.5,7.5
	c0,16.7-4.6,29.8-13.7,38.9l0,0l0,0c-15.8,15.8-43.9,18.1-79.2,6.3c-37-12.3-76.7-38.4-111.7-73.5S104.5,144.9,92.2,108
	c-11.7-35.2-9.5-63.3,6.3-79.2c15.8-15.8,43.9-18.1,79.2-6.3c37,12.3,76.7,38.4,111.7,73.5c27.5,27.5,49.6,57.9,63.9,88.1
	c1.8,3.7,6.3,5.3,10,3.6c3.7-1.8,5.3-6.3,3.6-10c-15.1-31.7-38.2-63.6-66.9-92.3c-36.7-36.7-78.5-64.1-117.6-77.1
	c-40.9-13.6-74.5-10.1-94.5,10l0,0l-7.1,7.1c-25.5,25.5-34.4,64-25.2,108.7c9,43.5,34.2,87.8,71.2,124.7
	c53.4,53.4,105.4,68.2,139.7,71.3c5,0.4,9.9,0.7,14.8,0.7c32.6,0,62.5-9.6,78.9-26l7.1-7.1l0,0c11.8-11.8,18.1-28.9,18.1-49.5
	C385.3,243.8,381.9,240.5,377.8,240.5z M267.8,314.9c-31.8-2.8-80.2-16.8-130.4-66.9C82.8,193.3,57.9,124.6,70,74.9
	c0.8,11.7,3.4,24.3,7.9,37.8c13,39.1,40.4,80.9,77.1,117.6s78.5,64.1,117.6,77.1c9.8,3.3,19.1,5.5,27.9,6.8
	C290.6,315.6,279.6,315.9,267.8,314.9z M442,141.3l-33.6-33.6c-2.9-2.9-7.7-2.9-10.6,0s-2.9,7.7,0,10.6l1.8,1.8L383.7,136
	c-2.9,2.9-2.9,7.7,0,10.6c1.5,1.5,3.4,2.2,5.3,2.2s3.8-0.7,5.3-2.2l15.9-15.9l15.9,15.9L321.2,251.5c-2.9,2.9-2.9,7.7,0,10.6
	c1.5,1.5,3.4,2.2,5.3,2.2s3.8-0.7,5.3-2.2L442,151.9c1.4-1.4,2.2-3.3,2.2-5.3S443.4,142.7,442,141.3z"/>
</svg>
