<?xml version="1.0" encoding="utf-8"?>
<!-- Generator: Adobe Illustrator 19.2.0, SVG Export Plug-In . SVG Version: 6.00 Build 0)  -->
<svg version="1.1" id="Layer_1" xmlns="http://www.w3.org/2000/svg" xmlns:xlink="http://www.w3.org/1999/xlink" x="0px" y="0px"
	 viewBox="0 0 390.8 141.6" style="enable-background:new 0 0 390.8 141.6;" xml:space="preserve">
<style type="text/css">
	.st0{fill:#000111;}
	.st1{fill:#FFFFFF;}
</style>
<path class="st0" d="M57.9,107.5c-2.6,2.2-5.5,4-8.6,5.2c-3.3,1.5-6.8,2.2-10.3,2.3c-4.1,0.1-8.1-0.7-11.8-2.5
	c-3.1-1.6-5.8-4-7.7-6.9c-2-3-3.5-6.4-4.3-10c-0.9-3.9-1.4-7.9-1.4-11.9c0-6.6,0.9-13.2,2.6-19.6c1.6-6.3,4.2-12.2,7.8-17.6
	c3.4-5.1,7.9-9.4,13.2-12.6c5.7-3.3,12.2-4.9,18.7-4.8c4.7,0,8.5,0.8,11.2,2.5c2.4,1.3,4.3,3.4,5.5,5.8L80.7,0h22.1l-7.7,37.5
	c2.2-2.5,5-4.5,8-5.9c3.8-1.8,8-2.6,12.2-2.5c7.9,0,13.9,2.8,18.1,8.5c4.2,5.6,6.2,13.1,6.2,22.4c0,6.7-0.9,13.4-2.8,19.9
	c-1.7,6.3-4.5,12.3-8.2,17.7c-3.6,5.2-8.2,9.5-13.7,12.7c-5.8,3.3-12.4,5-19.1,4.8c-3.2,0-6.5-0.8-9.3-2.3c-2.5-1.3-4.7-3.1-6.5-5.3
	l-7.3,34.1H50.7L57.9,107.5z M47.9,98.1c3.1,0.1,6.2-0.8,8.9-2.4c2.2-1.3,4-3.2,5.1-5.5l7.6-35.9c-0.3-3.3-1.6-5.6-3.9-6.8
	c-2.1-1.2-4.5-1.9-7-1.9c-3.8-0.1-7.5,1.3-10.3,3.8c-2.9,2.7-5.3,5.9-6.9,9.5c-1.8,3.9-3.1,8.1-3.8,12.3c-0.8,4-1.2,8.1-1.2,12.1
	c-0.2,3.7,0.7,7.3,2.4,10.6C40.5,96.7,43.5,98.1,47.9,98.1L47.9,98.1z M94.4,98.1c3.8,0.1,7.6-1.3,10.4-3.9c3-2.8,5.3-6.1,7-9.8
	c1.9-4,3.2-8.3,4-12.6c0.8-4.1,1.2-8.3,1.3-12.5c0-4.4-0.9-7.9-2.7-10.2c-1.8-2.4-4.6-3.6-8.4-3.6c-2.7,0.1-5.4,0.7-7.8,1.9
	c-3,1.4-5.4,3.8-6.9,6.8l-7.3,35.9v0.2c0.1,2.1,1.1,4.1,2.8,5.4C88.5,97.3,91.1,98.1,94.4,98.1L94.4,98.1z M162.9,115.1
	c-3.9,0.1-7.9-0.5-11.6-1.7c-3-1-5.9-2.6-8.3-4.7c-2.1-1.9-3.8-4.2-4.9-6.8c-1.1-2.6-1.6-5.4-1.6-8.2c0-7.9,2.7-14.2,8.2-19
	c5.4-4.8,13.1-7.7,23-8.9c5.3-0.6,9.9-1.1,13.8-1.4c3.3-0.2,6.5-0.7,9.7-1.5c2.2-0.5,4.2-1.5,5.8-3c1.3-1.3,1.9-3.3,1.9-5.9
	c0.1-1.8-0.4-3.6-1.4-5.1c-0.9-1.3-2.2-2.3-3.6-3c-1.4-0.7-3-1.2-4.6-1.5c-1.5-0.3-3.1-0.4-4.7-0.4c-3.8-0.1-7.5,0.9-10.8,2.9
	c-3.2,2-5.3,5.3-5.9,9.1h-21c0.5-4.6,2.2-9,4.8-12.9c2.3-3.4,5.4-6.2,8.9-8.3c3.6-2.2,7.6-3.7,11.8-4.5c4.4-0.9,8.9-1.3,13.4-1.3
	c3.9,0,7.7,0.3,11.6,0.8c3.8,0.5,7.6,1.5,11.1,3.1c3.3,1.4,6.1,3.7,8.3,6.5c2.1,2.8,3.1,6.5,3,11.2c-0.1,4.6-0.7,9.2-1.7,13.8
	l-7.3,32.9c-0.5,1.8-0.8,3.6-0.9,5.5c-0.2,2.2-0.2,4-0.2,5.6c0.1,1.6,0.3,3.2,0.8,4.8h-22.5v-8.1c-3,3.5-6.9,6.1-11.2,7.7
	C172.3,114.2,167.6,115.1,162.9,115.1z M171.2,100.2c3,0.1,6-0.5,8.7-1.7c2.3-1,4.3-2.5,6-4.3c1.6-1.7,2.9-3.7,3.8-5.9
	c0.9-2.2,1.7-4.4,2.4-6.7l2.2-7.9c-2.8,1.7-5.9,2.7-9.1,3.1c-3.3,0.4-6.5,0.7-9.8,0.9c-2.1,0.2-4.1,0.5-6.1,1
	c-1.9,0.4-3.6,1.1-5.3,2.1c-1.5,1-2.8,2.3-3.7,3.9c-1,1.9-1.5,4.1-1.4,6.2c-0.1,2.8,1.3,5.5,3.7,6.9
	C165.2,99.4,168.2,100.2,171.2,100.2L171.2,100.2z M235.5,31.2h22L251,61.6l32.8-30.4h28.5l-37.5,32.3l21.7,49.5h-24.8l-13.9-35
	l-12.3,10.6l-5.2,24.4h-22L235.5,31.2z M326.8,48.1h-26.9l3.6-16.9h87.3l-3.6,16.9h-37.9L335.5,113H313L326.8,48.1z"/>
<title>fact_logo</title>
<path class="st1" d="M45.1,107.5c-2.6,2.2-5.5,4-8.6,5.2c-3.3,1.5-6.8,2.2-10.4,2.3c-4.1,0.1-8.1-0.7-11.8-2.5
	c-3.1-1.6-5.8-4-7.7-6.9c-2-3-3.5-6.4-4.3-10C1.5,91.7,1,87.7,1,83.7c0-6.6,0.9-13.2,2.7-19.6c1.6-6.3,4.2-12.2,7.8-17.6
	c3.4-5.1,7.9-9.4,13.2-12.6c5.7-3.3,12.2-4.9,18.7-4.8c4.7,0,8.5,0.8,11.2,2.5C57,33,59,35,60.2,37.5L67.9,0H90l-7.7,37.5
	c2.2-2.5,5-4.5,8-5.9c3.8-1.8,8-2.6,12.2-2.5c7.9,0,13.9,2.8,18.1,8.5c4.2,5.6,6.2,13.1,6.2,22.4c0,6.7-0.9,13.4-2.8,19.9
	c-1.7,6.3-4.5,12.3-8.2,17.7c-3.6,5.2-8.2,9.5-13.7,12.7c-5.8,3.3-12.4,5-19.1,4.8c-3.2,0-6.5-0.8-9.3-2.3c-2.5-1.3-4.7-3.1-6.5-5.3
	L60,141.6H37.9L45.1,107.5z M35.1,98.1c3.1,0.1,6.2-0.8,8.9-2.4c2.2-1.3,4-3.2,5.1-5.5l7.6-35.9c-0.3-3.3-1.6-5.6-3.9-6.8
	c-2.1-1.2-4.5-1.9-7-1.9c-3.8-0.1-7.5,1.3-10.3,3.8c-2.9,2.7-5.3,5.9-6.9,9.5c-1.8,3.9-3.1,8.1-3.8,12.3c-0.8,4-1.2,8.1-1.2,12.1
	c-0.2,3.7,0.7,7.3,2.4,10.6C27.7,96.7,30.7,98.1,35.1,98.1L35.1,98.1z M81.6,98.1c3.8,0.1,7.6-1.3,10.4-3.9c3-2.8,5.3-6.1,7-9.8
	c1.9-4,3.2-8.3,4-12.6c0.8-4.1,1.2-8.3,1.3-12.5c0-4.4-0.9-7.9-2.7-10.2c-1.8-2.4-4.6-3.6-8.4-3.6c-2.7,0.1-5.4,0.7-7.8,1.9
	c-3,1.4-5.4,3.8-6.9,6.8l-7.3,35.9v0.2c0.1,2.1,1.1,4.1,2.8,5.4C75.8,97.3,78.3,98.1,81.6,98.1L81.6,98.1z M150.1,115.1
	c-3.9,0.1-7.9-0.5-11.6-1.7c-3-1-5.9-2.6-8.3-4.7c-2.1-1.9-3.8-4.2-4.9-6.8c-1.1-2.6-1.6-5.4-1.6-8.2c0-7.9,2.7-14.2,8.2-19
	c5.4-4.8,13.1-7.7,23-8.9c5.3-0.6,9.9-1.1,13.8-1.4c3.3-0.2,6.5-0.7,9.7-1.5c2.2-0.5,4.2-1.5,5.8-3c1.3-1.3,1.9-3.3,1.9-5.9
	c0.1-1.8-0.4-3.6-1.4-5.1c-0.9-1.3-2.2-2.3-3.6-3c-1.4-0.7-3-1.2-4.6-1.5c-1.5-0.3-3.1-0.4-4.7-0.4C168,44,164.2,45,161,46.9
	c-3.2,2-5.3,5.3-5.9,9.1h-21c0.5-4.6,2.2-9,4.8-12.9c2.3-3.4,5.4-6.2,8.9-8.3c3.6-2.2,7.6-3.7,11.8-4.5c4.4-0.9,8.9-1.3,13.4-1.3
	c3.9,0,7.7,0.3,11.6,0.8c3.8,0.5,7.6,1.5,11.1,3.1c3.3,1.4,6.1,3.7,8.3,6.5c2.1,2.8,3.1,6.5,3,11.2c-0.1,4.6-0.7,9.2-1.7,13.8
	l-7.3,32.9c-0.5,1.8-0.8,3.6-0.9,5.5c-0.2,2.2-0.2,4-0.2,5.6c0.1,1.6,0.3,3.2,0.8,4.8h-22.5v-8.1c-3,3.5-6.9,6.1-11.2,7.7
	C159.5,114.2,154.8,115.1,150.1,115.1z M158.4,100.2c3,0.1,6-0.5,8.7-1.7c2.3-1,4.3-2.5,6-4.3c1.6-1.7,2.9-3.7,3.8-5.9
	c0.9-2.2,1.7-4.4,2.4-6.7l2.2-7.9c-2.8,1.7-5.9,2.7-9.1,3.1c-3.3,0.4-6.5,0.7-9.8,0.9c-2.1,0.2-4.1,0.5-6.1,1
	c-1.9,0.4-3.6,1.1-5.3,2.1c-1.5,1-2.8,2.3-3.7,3.9c-1,1.9-1.5,4.1-1.4,6.2c-0.1,2.8,1.3,5.5,3.7,6.9
	C152.4,99.4,155.4,100.2,158.4,100.2L158.4,100.2z M222.7,31.2h22l-6.5,30.4L271,31.2h28.5l-37.5,32.3l21.7,49.5h-24.8l-13.9-35
	l-12.3,10.6l-5.2,24.4h-22L222.7,31.2z M314,48.1h-26.9l3.6-16.9H378l-3.6,16.9h-37.9L322.7,113h-22.5L314,48.1z"/>
</svg>
